HIERARCHY
ROOT Hips
{
	OFFSET 0.000000 0.000000 0.000000
	CHANNELS 6 Xposition Yposition Zposition Xrotation Yrotation Zrotation
	JOINT LeftUpLeg_virtual
	{
		OFFSET 0.000000 0.000000 0.000000
		CHANNELS 3 Xrotation Yrotation Zrotation
		JOINT LeftUpLeg
		{
			OFFSET 10.205400 -3.823500 0.155100
			CHANNELS 3 Xrotation Yrotation Zrotation
			JOINT LeftLeg
			{
				OFFSET 0.708757 -12.982077 0.567790
				CHANNELS 3 Xrotation Yrotation Zrotation
				JOINT LeftFoot
				{
					OFFSET -0.708756 -10.717838 -2.184338
					CHANNELS 3 Xrotation Yrotation Zrotation
					JOINT LeftToeBase
					{
						OFFSET 0.108149 -7.191104 7.560241
						CHANNELS 3 Xrotation Yrotation Zrotation
						JOINT LeftToe_End
						{
							OFFSET 0.070230 0.081724 4.490308
							CHANNELS 3 Xrotation Yrotation Zrotation
							End Site
							{
								OFFSET 0 0 0
							}
						}
					}
				}
			}
		}
	}
	JOINT RightUpLeg_virtual
	{
		OFFSET 0.000000 0.000000 0.000000
		CHANNELS 3 Xrotation Yrotation Zrotation
		JOINT RightUpLeg
		{
			OFFSET -10.205400 -3.823500 0.005500
			CHANNELS 3 Xrotation Yrotation Zrotation
			JOINT RightLeg
			{
				OFFSET -0.708756 -12.982134 0.610632
				CHANNELS 3 Xrotation Yrotation Zrotation
				JOINT RightFoot
				{
					OFFSET 0.708754 -10.717769 -1.945823
					CHANNELS 3 Xrotation Yrotation Zrotation
					JOINT RightToeBase
					{
						OFFSET -0.108140 -7.191069 7.372968
						CHANNELS 3 Xrotation Yrotation Zrotation
						JOINT RightToe_End
						{
							OFFSET -0.070227 0.081735 4.479403
							CHANNELS 3 Xrotation Yrotation Zrotation
							End Site
							{
								OFFSET 0 0 0
							}
						}
					}
				}
			}
		}
	}
	JOINT Spine_virtual
	{
		OFFSET 0.000000 0.000000 0.000000
		CHANNELS 3 Xrotation Yrotation Zrotation
		JOINT Spine
		{
			OFFSET 0.000000 6.876099 0.125700
			CHANNELS 3 Xrotation Yrotation Zrotation
			JOINT Spine1
			{
				OFFSET 0.000000 5.730043 0.104720
				CHANNELS 3 Xrotation Yrotation Zrotation
				JOINT Spine1_split
				{
					OFFSET 0.000000 5.730043 0.104720
					CHANNELS 3 Xrotation Yrotation Zrotation
					JOINT Spine2
					{
						OFFSET 0.000000 5.730043 0.104720
						CHANNELS 3 Xrotation Yrotation Zrotation
						JOINT Neck_virtual
						{
							OFFSET 0.000000 0.000000 0.000000
							CHANNELS 3 Xrotation Yrotation Zrotation
							JOINT Neck
							{
								OFFSET 0.000000 10.314075 0.188496
								CHANNELS 3 Xrotation Yrotation Zrotation
								JOINT Head
								{
									OFFSET 0.000000 7.643700 -2.377400
									CHANNELS 3 Xrotation Yrotation Zrotation
									JOINT HeadTop_End
									{
										OFFSET 0.000000 43.788605 -13.619600
										CHANNELS 3 Xrotation Yrotation Zrotation
										End Site
										{
											OFFSET 0 0 0
										}
									}
								}
							}
						}
						JOINT LeftShoulder_virtual
						{
							OFFSET 0.000000 0.000000 0.000000
							CHANNELS 3 Xrotation Yrotation Zrotation
							JOINT LeftShoulder
							{
								OFFSET 2.196100 4.412489 0.087492
								CHANNELS 3 Xrotation Yrotation Zrotation
								JOINT LeftShoulder_split
								{
									OFFSET 2.196100 4.412489 0.087492
									CHANNELS 3 Xrotation Yrotation Zrotation
									JOINT LeftArm
									{
										OFFSET 8.771219 -2.981674 -0.026999
										CHANNELS 3 Xrotation Yrotation Zrotation
										JOINT LeftForeArm
										{
											OFFSET 8.512804 0.000000 -0.000000
											CHANNELS 3 Xrotation Yrotation Zrotation
											JOINT LeftHand
											{
												OFFSET 18.484802 0.000000 -0.000000
												CHANNELS 3 Xrotation Yrotation Zrotation
												End Site
												{
													OFFSET 0 0 0
												}
											}
										}
									}
								}
							}
						}
						JOINT RightShoulder_virtual
						{
							OFFSET 0.000000 0.000000 0.000000
							CHANNELS 3 Xrotation Yrotation Zrotation
							JOINT RightShoulder
							{
								OFFSET -2.196100 4.412496 0.070690
								CHANNELS 3 Xrotation Yrotation Zrotation
								JOINT RightShoulder_split
								{
									OFFSET -2.196100 4.412496 0.070690
									CHANNELS 3 Xrotation Yrotation Zrotation
									JOINT RightArm
									{
										OFFSET -8.771282 -2.981682 -0.094208
										CHANNELS 3 Xrotation Yrotation Zrotation
										JOINT RightForeArm
										{
											OFFSET -8.494598 0.000000 0.000000
											CHANNELS 3 Xrotation Yrotation Zrotation
											JOINT RightHand
											{
												OFFSET -18.483803 0.000000 0.000001
												CHANNELS 3 Xrotation Yrotation Zrotation
												End Site
												{
													OFFSET 0 0 0
												}
											}
										}
									}
								}
							}
						}
					}
				}
			}
		}
	}
}
MOTION
Frames: 4
Frame Time: 0.03333333
-1.362993 31.101353 -1.133396 0.000000 0.000000 0.000000 5.118093 -14.494833 8.588929 -37.535223 -6.051668 -16.419686 -1.363953 -5.907180 -0.310668 32.801181 -27.646343 0.436611 0.917120 -0.676895 0.130960 0.000000 0.000000 0.000000 5.118093 -14.494833 8.588929 15.924089 -18.976081 -9.915672 37.181798 9.111903 -4.458028 -30.151440 -3.418128 6.687620 -28.429537 0.040161 -0.837826 0.000000 0.000000 0.000000 5.118093 -14.494833 8.588929 1.634670 5.168730 2.150274 5.177703 9.319221 2.133651 0.000000 0.000000 0.000000 0.000000 0.000000 0.000000 5.034877 9.321733 2.400949 -1.845149 -1.005207 -1.922214 -8.332132 -2.916354 -12.042394 0.000000 0.000000 0.000000 5.034877 9.321733 2.400949 0.683990 -0.873503 -14.226811 0.000000 0.000000 0.000000 -18.744851 -25.288468 -72.307770 0.000005 -68.920727 0.000008 0.000000 0.000000 0.000000 5.034877 9.321733 2.400949 -0.133310 13.109092 18.148115 0.000000 0.000000 0.000000 -38.704957 64.841417 69.860281 0.000010 37.971446 -0.000001 0.000000 0.000000 0.000000 
-1.320859 31.119347 -1.173822 0.000000 0.000000 0.000000 5.221283 -14.614906 8.280845 -37.902287 -5.609293 -16.631019 -0.603792 -6.587126 0.647258 32.357946 -27.658059 0.043743 0.667291 -0.610890 0.005083 0.000000 0.000000 0.000000 5.221283 -14.614906 8.280845 16.740841 -18.965653 -9.452833 35.283340 9.330691 -4.107651 -30.145388 -3.244186 6.355653 -27.360365 0.033448 -0.829356 0.000000 0.000000 0.000000 5.221283 -14.614906 8.280845 1.762426 5.347073 2.152174 5.142804 9.248734 2.093730 0.000000 0.000000 0.000000 0.000000 0.000000 0.000000 5.009904 9.249991 2.349702 -2.293331 -1.110687 -1.843286 -8.922893 -3.110393 -11.930525 0.000000 0.000000 0.000000 5.009904 9.249991 2.349702 0.679165 -0.891289 -14.251612 0.000000 0.000000 0.000000 -19.028053 -25.737560 -72.345965 -0.000012 -69.038698 -0.000007 0.000000 0.000000 0.000000 5.009904 9.249991 2.349702 -0.114666 13.054886 18.076879 0.000000 0.000000 0.000000 -38.651829 64.286396 69.702845 -0.000029 39.069690 0.000008 0.000000 0.000000 0.000000 
-1.280122 31.133297 -1.215658 0.000000 0.000000 0.000000 5.336453 -14.732580 7.958028 -38.223723 -5.289091 -16.562061 -0.195211 -7.045304 1.111569 32.383255 -27.660729 -0.146785 0.208293 -0.432393 0.001112 0.000000 0.000000 0.000000 5.336453 -14.732580 7.958028 17.655735 -18.935709 -8.939276 33.185164 9.612893 -3.716832 -30.088049 -3.119237 5.969710 -26.246793 0.026618 -0.817025 0.000000 0.000000 0.000000 5.336453 -14.732580 7.958028 1.882762 5.546888 2.194885 5.104400 9.188400 2.061218 0.000000 0.000000 0.000000 0.000000 0.000000 0.000000 4.981966 9.188255 2.305708 -2.771686 -1.219059 -1.795571 -9.506120 -3.368512 -11.818340 0.000000 0.000000 0.000000 4.981966 9.188255 2.305708 0.673634 -0.911973 -14.273296 0.000000 0.000000 0.000000 -19.350602 -26.206756 -72.409752 0.000007 -69.140243 0.000032 0.000000 0.000000 0.000000 4.981966 9.188255 2.305708 -0.094505 12.998472 17.993315 0.000000 0.000000 0.000000 -38.614898 63.703644 69.559330 -0.000025 40.235883 0.000021 0.000000 0.000000 0.000000 
-1.240947 31.143425 -1.255587 0.000000 0.000000 0.000000 5.455632 -14.852742 7.624432 -38.784160 -5.011874 -15.959913 0.646263 -7.085555 0.479994 32.340713 -27.614412 0.355206 0.147668 -0.152482 0.000285 0.000000 0.000000 0.000000 5.455632 -14.852742 7.624432 18.648682 -18.923966 -8.375561 30.925205 9.931092 -3.359720 -29.960980 -3.022758 5.595388 -25.121680 0.019927 -0.799893 0.000000 0.000000 0.000000 5.455632 -14.852742 7.624432 1.996847 5.763498 2.270880 5.063470 9.135447 2.034098 0.000000 0.000000 0.000000 0.000000 0.000000 0.000000 4.951895 9.133788 2.266978 -3.266403 -1.329002 -1.764603 -10.085031 -3.660324 -11.710966 0.000000 0.000000 0.000000 4.951895 9.133788 2.266978 0.667687 -0.934398 -14.290996 0.000000 0.000000 0.000000 -19.696000 -26.670576 -72.497363 0.000001 -69.220887 0.000010 0.000000 0.000000 0.000000 4.951895 9.133788 2.266978 -0.073968 12.942811 17.902078 0.000000 0.000000 0.000000 -38.594158 63.124540 69.435498 -0.000000 41.407376 -0.000005 0.000000 0.000000 0.000000 
